<?xml version="1.0" encoding="utf-8"?>
<!-- Generator: Adobe Illustrator 24.1.0, SVG Export Plug-In . SVG Version: 6.00 Build 0)  -->
<svg version="1.1" id="ae7ad495-543d-4c4b-9483-8059c5566fe6"
	 xmlns="http://www.w3.org/2000/svg" xmlns:xlink="http://www.w3.org/1999/xlink" x="0px" y="0px" viewBox="0 0 1009.5 839.6"
	 style="enable-background:new 0 0 1009.5 839.6;" xml:space="preserve">
<g transform="translate(0.000000,1280.000000) scale(0.100000,-0.100000)">
	<path d="M6007.2,12684.8c-130.5-34.6-215.6-115.2-241.9-227.8c-3.8-17.3-9.6-78.7-12.8-136.9c-3.8-58.2-7.7-133.1-9.6-166.4
		c-4.5-71,5.8-108.1,48.6-179.8c19.8-32.6,28.2-53.8,32.6-87c4.5-34.6,12.2-53.8,35.8-91.5c16-26.2,40.3-65.9,54.4-88.3
		c30.7-49.9,35.2-70.4,21.8-103.7c-7.7-19.8-9.6-36.5-6.4-66.5c3.8-37.8,2.6-43.5-16.6-80c-21.8-40.3-43.5-58.2-83.2-69.7
		c-12.2-3.2-71-26.9-131.2-52.5c-59.5-25.6-134.4-56.3-166.4-68.5c-78.1-30.1-103.7-44.2-115.2-62.1c-5.8-8.3-22.4-48-37.8-87.7
		c-15.4-40.3-37.8-94.7-49.9-120.9c-12.2-26.2-25.6-62.1-30.1-80c-4.5-17.3-17.3-55-28.8-83.2c-12.2-28.2-26.2-75.5-32-104.9
		c-12.2-60.2-36.5-112.6-70.4-153.6c-16.6-19.2-29.4-48-48-104.9c-14.1-42.9-31.4-88.9-38.4-102.4c-8.3-16.6-11.5-31.4-9-46.7
		c3.2-18.6,0-27.5-17.9-52.5c-21.8-29.4-21.8-30.7-21.1-94.1c1.3-84.5,14.1-218.8,25-259.8c10.2-37.8,28.8-60.8,59.5-74.2
		c11.5-4.5,76.1-12.8,147.2-18.6c80.6-6.4,129.3-12.8,134.4-17.9c7-7,6.4-36.5-1.9-170.2c-5.8-88.9-11.5-164.5-13.4-167.7
		c-1.9-2.6-2.6-33.3-1.9-67.2c1.9-97.3,0-150.4-14.7-363.5c-7-108.8-13.4-271.3-14.1-360.3c-0.6-153.6,0-162.5,11.5-171.5
		c7-5.1,21.8-9,33.3-9h20.5l3.2-270c1.3-150.4,5.8-289.2,9.6-312.3c3.8-23,20.5-142.1,35.8-265.6c16-122.9,36.5-270,45.4-326.3
		c33.9-216.9,60.8-569.5,60.8-808.2c0-209.2,7-286.7,35.2-404.4c18.6-75.5,19.8-93.4,10.9-134.4c-3.8-16-9.6-69.1-13.4-118.4
		s-12.2-129.9-18.6-179.2c-5.8-49.3-10.9-128.6-11.5-176c0-48-2.6-90.2-5.1-94.7c-2.6-4.5-1.3-28.2,3.2-52.5
		c14.1-80.6-10.2-154.9-67.8-201.6c-17.3-14.7-30.7-32.6-35.8-46.7c-10.9-33.9-32.6-55-81.3-76.8c-23.7-10.2-77.4-34.6-119.7-53.1
		c-76.8-34.6-99.8-51.8-146.5-110.7l-17.9-23l22.4-9.6c12.2-5.1,62.1-19.8,110.7-32.6c80.6-21.8,96.6-24.3,172.1-24.3
		c147.8,0,304.6,47.4,361.5,108.8c39.7,43.5,44.2,44.2,109.4,27.5c51.8-13.4,60.2-13.4,99.8-6.4c68.5,12.2,134.4,33.3,149.7,47.4
		c15.4,14.1,14.7,32.6-2.6,97.3c-5.8,21.1-13.4,88.9-17.3,150.4c-3.8,62.7-12.2,135-19.2,163.8c-9.6,41-10.9,57.6-5.8,76.8
		c12.2,46.7,33.3,108.1,56.3,165.7l23,57.6l1.9,262.4c1.9,214.4,0.6,272.6-7.7,319.9c-14.1,82.5-16,104.3-23.7,277.7
		c-5.1,122.2-5.1,162.5,1.3,187.5c7,25,7,38.4,0,67.8c-23.7,107.5-23.7,111.3-3.8,161.9c28.2,71.7,42.9,229.7,54.4,572.1
		c3.8,133.1,8.3,190,16.6,222.7c6.4,23.7,12.8,42.9,15.4,42.9c7.7,0,19.2-28.8,55-140.8c61.4-193.2,91.5-298.2,136.9-481.2
		c24.3-97.3,65.3-250.8,90.2-342.3c51.8-189.4,154.9-607.3,187.5-764c12.2-58.9,30.7-140.8,41.6-182.4
		c10.2-42.2,25-104.9,32.6-140.1c8.3-35.2,25.6-104.3,39-153.6c14.1-49.3,25-96,25-104.3c0-9.6-19.8-35.2-57.6-75.5
		c-104.9-111.3-120.3-172.8-73.6-290.5c13.4-33.3,31.4-74.9,40.3-92.8c26.2-51.8,22.4-69.7-27.5-138.9
		c-24.3-32.6-65.9-80.6-93.4-106.2c-46.7-43.5-133.7-151-142.1-176c-7-19.2,15.4-33.9,66.5-42.2c127.3-21.1,255.3-39,282.2-39
		c42.9,0,188.8,35.8,220.1,54.4c26.9,15.4,53.8,57.6,53.8,82.5c0,20.5,12.8,35.2,40.3,47.4c14.7,6.4,30.1,16,33.9,21.1
		c4.5,5.1,9,35.2,10.2,67.2c1.9,40.3,5.8,63.3,13.4,74.9c15.4,23.7,13.4,39.7-7.7,77.4c-26.2,46.7-27.5,60.2-13.4,116.5
		c23,89.6,26.9,126.1,19.2,197.1c-7,61.4-6.4,67.8,7,106.9l14.7,41l-1.9,409.5l-1.3,409.5l-19.2,150.4
		c-29.4,237.4-67.8,439.6-112,588.7l-23.7,80l-5.1,243.2c-4.5,238.7-12.8,348.7-34.6,452.4c-5.1,25.6-13.4,75.5-19.2,110.7
		c-5.1,35.2-16.6,98.5-26.2,140.8c-14.7,66.5-17.3,97.9-21.1,240c-4.5,160.6-4.5,164.5-28.8,261.7l-25,99.2l13.4,10.9
		c7.7,5.8,47.4,23,88.9,37.8c41.6,15.4,80.6,32,87,38.4c10.9,10.2,10.9,12.8,1.9,48.6c-5.8,21.1-26.9,121.6-48,223.3
		c-37.1,179.2-87,399.3-118.4,518.3c-8.3,32-17.3,78.1-19.2,102.4c-1.9,25-15.4,83.8-30.1,131.2c-30.7,103-37.1,160-22.4,215
		c14.7,57,12.8,91.5-9,154.2c-10.2,30.1-19.2,64.6-19.2,76.1c0,11.5,14.1,53.8,31.4,94.1c17.3,40.3,42.2,103,55,139.5
		c33.9,95.3,58.2,145.3,116.5,240c69.7,112.6,76.8,127.3,81.9,172.1c2.6,21.1,21.1,88.9,41.6,150.4c39,117.7,39,118.4,40.3,259.2
		c0.6,63.4-1.3,74.9-17.3,113.3c-23.7,57.6-59.5,96.6-112,123.5c-77.4,38.4-161.9,69.1-205.4,72.9c-29.4,2.6-48.6,9-63.3,19.2
		c-32,23-90.2,44.8-117.7,45.4c-32.6,0-52.5,11.5-94.1,54.4c-19.2,19.8-57,49.3-83.2,65.3c-59.5,36.5-67.8,43.5-90.2,74.9
		c-17.9,23.7-18.6,28.2-18.6,96v71l34.6,37.1c38.4,41,74.2,115.2,74.2,154.2c0,23.7-19.2,48.6-37.1,48.6c-10.2,0-10.2-4.5,5.1,118.4
		c7,57,0,138.9-16,192.6C6402,12630.4,6184.4,12732.8,6007.2,12684.8z"/>
	<path d="M3295.3,12297c-66.5-20.5-120.9-72.3-146.5-141.4c-17.3-44.8-100.5-334-127.3-440.2c-72.3-284.8-81.3-426.8-33.3-514.5
		c10.9-19.8,30.1-57,42.9-82.5c21.1-44.2,21.8-48,12.2-58.9c-5.8-6.4-32-19.8-58.2-29.4c-55-19.8-78.1-42.9-94.7-93.4
		c-14.1-44.8-12.8-78.7,5.8-135.7c9-26.9,16-61.4,16-76.8c0-49.9,17.3-119.7,57.6-234.2c57.6-163.2,97.3-240.6,156.1-306.5
		c48-52.5,67.8-91.5,67.8-131.8c0-7.7,15.4-35.2,34.6-60.8c41.6-57,93.4-191.3,93.4-243.2c0-30.7-52.5-284.1-98.5-476.7
		c-30.1-125.4-98.5-366-111.3-390.3c-7-14.7-8.3-31.4-5.8-73.6c2.6-30.7,1.3-65.3-1.9-76.8c-8.3-29.4,3.8-272,16.6-329.5
		c16-69.1,26.9-100.5,45.4-128c12.2-18.6,21.1-46.1,32-102.4c21.8-113.9,23.7-154.9,15.4-331.5c-7.7-151.7-7.7-168.3,5.1-279
		c7.7-64.6,13.4-145.3,13.4-179.2c-0.6-144-26.2-339.1-55-419.1c-26.2-73.6-81.3-339.8-88.9-429.4c-3.8-46.7-19.2-465.2-25.6-713.5
		c-2.6-79.3-1.3-227.2,3.2-328.3l7-184.3l-27.5-58.9c-23-49.9-26.9-65.3-27.5-100.5c0-44.2-3.2-37.1,58.2-134.4
		c41-65.3,49.9-104.3,51.8-230.4c0.6-61.4,1.3-114.5,1.9-117.1c0-3.2,7.7-4.5,17.3-3.2l17.9,1.9l3.8,99.2c2.6,54.4,9,119.7,14.7,144
		c5.8,25,11.5,51.2,13.4,59.5c5.1,21.8,21.1,17.3,68.5-17.9c72.9-55,119-112.6,204.1-255.3c42.2-71.7,47.4-73.6,152.3-76.1
		c113.3-3.2,204.8,6.4,302.7,31.4c98.5,24.3,103.7,28.8,98.5,78.7c-1.9,21.1-8.3,44.8-14.1,53.8c-10.9,16.6-64.6,42.9-133.7,64.6
		c-24.3,7.7-52.5,17.3-62.7,21.1c-12.2,5.1-36.5,35.8-85.7,110.1c-85.1,128.6-110.7,176.6-136.9,253.4
		c-19.8,58.2-21.1,65.9-25.6,198.4c-2.6,75.5-8.3,152.9-12.2,172.1c-5.1,24.3-6.4,113.3-4.5,294.4c2.6,257.2,2.6,261.7,28.8,479.9
		c31.4,256,34.6,279.6,55,366.7c14.1,60.2,17.9,67.8,41,88.3c21.8,19.8,26.2,29.4,39.7,83.2c8.3,33.3,26.2,85.7,39.7,117.1
		c14.1,30.7,29.4,75.5,34.6,99.8c4.5,24.3,26.2,112,47.4,193.9c20.5,81.9,49.9,202.2,64,266.8c14.1,64.6,29.4,124.1,33.9,132.5
		c7.7,14.7,12.8,9.6,120.9-139.5c165.1-227.8,204.8-285.4,233.6-341.7c50.6-97.9,61.4-178.5,32-237.4c-12.2-23-16.6-41.6-16-64
		c0.6-24.3-3.2-39.7-15.4-60.2c-9-15.4-30.7-71.7-48.6-125.4c-30.1-91.5-48.6-173.4-87-389.1c-9-49.9-28.2-128.6-42.2-176
		c-14.7-47.4-37.1-132.5-50.6-188.8c-14.1-56.3-33.9-136.3-44.8-178.5c-10.9-41.6-19.8-90.9-19.8-109.4c0-66.5-10.9-97.9-66.5-194.5
		c-90.9-158.7-90.2-154.2-42.2-225.2c52.5-78.1,69.7-149.7,70.4-296.9c0-42.2,2.6-80.6,5.8-85.1c10.9-17.3,17.9,8.3,22.4,77.4
		c5.8,90.2,12.2,122.2,37.1,185.6c14.7,35.8,25,53.1,32.6,54.4c13.4,2.6,82.5-41.6,127.3-81.3c37.8-33.3,78.7-87.7,122.9-162.5
		c57.6-97.9,76.8-108.8,192.6-108.8c128.6,0,245.1,30.1,286,73.6c25.6,26.2,30.7,49.3,14.7,62.7c-5.1,4.5-9.6,12.2-9.6,17.3
		s-9.6,12.8-21.8,17.9c-11.5,5.1-30.1,16-39.7,24.3c-32.6,26.9-49.3,32.6-107.5,36.5c-69.7,3.8-64-1.9-126.1,137.6
		c-79.3,178.5-72.3,144-65.9,319.9c5.1,138.2,7,156.1,19.8,179.2c53.8,101.1,49.9,88.3,48.6,176.6c-1.9,91.5-6.4,70.4,73.6,344.9
		c85.1,291.8,110.7,372.4,133.1,419.1c12.2,24.3,21.8,51.2,21.8,58.2c0,22.4,15.4,58.9,82.5,199c68.5,142.1,76.8,168.3,77.4,230.4
		c0,48-73.6,346.2-115.2,465.2c-119,343-188.1,506.8-383.9,910.6c-78.7,163.2-80,168.3-49.3,213.7c23,35.2,49.3,44.2,124.8,44.2
		c49.9,0,66.5,1.9,69.1,9c1.9,4.5-3.8,56.3-12.8,113.9s-21.1,169.6-26.2,248.9c-12.8,191.3-12.8,193.9-42.2,346.8
		c-14.1,72.9-23.7,135.7-21.8,138.9c1.9,3.8,15.4,8.3,30.1,10.2c14.1,2.6,39,13.4,55,25c64.6,43.5,119,67.2,205.4,87
		c65.3,15.4,101.1,34.6,124.1,67.8c23.7,34.6,32.6,76.8,28.2,138.2c-4.5,63.3-21.1,113.9-53.8,161.9c-13.4,19.2-30.1,44.2-36.5,55.7
		c-26.9,45.4-44.2,62.1-81.9,82.5c-37.8,19.8-170.2,135-212.4,184.3c-10.9,12.2-49.9,54.4-87,92.8
		c-72.3,74.9-124.8,140.1-195.2,243.2c-88.9,129.3-114.5,149.1-218.2,170.2c-55.7,11.5-104.9,32.6-104.9,44.8
		c0,2.6-21.8,20.5-48,40.3c-39,29.4-48,39-48,53.8c0,21.1,26.9,62.7,44.8,68.5c21.8,7,32.6,59.5,38.4,182.4
		c4.5,101.7,7,117.7,25.6,176c37.1,113.9,32.6,253.4-13.4,431.9c-31.4,122.9-60.8,171.5-141.4,231.6
		c-80.6,60.2-96.6,67.2-171.5,75.5c-37.1,3.8-90.2,9.6-117.7,13.4C3378.5,12309.2,3330.5,12307.9,3295.3,12297z"/>
</g>
</svg>
