<svg id="Capa_1" enable-background="new 0 0 512 512" height="512" viewBox="0 0 512 512" width="512" xmlns="http://www.w3.org/2000/svg"><g><g><path d="m447.083 419.796c-162.185-.007-166.408-.007-375.833-.017-.82 0-1.488-.668-1.488-1.488 0-123.208 0-261.254 0-375.678 0-11.122-9.048-20.17-20.17-20.17h-29.422c-11.122 0-20.17 9.048-20.17 20.17v396.355c0 27.955 22.776 50.589 50.589 50.589h304.682c4.142 0 7.5-3.358 7.5-7.5s-3.358-7.5-7.5-7.5h-304.682c-7.364 0-14.212-2.248-19.895-6.094l34.757-34.757c1.807.682 3.755 1.073 5.798 1.073l64.1.003v5.868c0 4.142 3.358 7.5 7.5 7.5s7.5-3.358 7.5-7.5v-5.868l42.488.002v9.668c0 4.142 3.358 7.5 7.5 7.5s7.5-3.358 7.5-7.5v-9.667l42.488.002v5.863c0 4.142 3.358 7.5 7.5 7.5s7.5-3.358 7.5-7.5v-5.863l42.488.002v9.663c0 4.142 3.358 7.5 7.5 7.5s7.5-3.358 7.5-7.5v-9.662l42.489.002v5.858c0 4.142 3.358 7.5 7.5 7.5s7.5-3.358 7.5-7.5v-5.858l66.779.003c2.851 0 5.17 2.319 5.17 5.17v29.421c0 2.851-2.319 5.17-5.17 5.17h-56.748c-4.142 0-7.5 3.358-7.5 7.5s3.358 7.5 7.5 7.5h56.748c11.122 0 20.17-9.048 20.17-20.17v-29.421c.002-11.121-9.047-20.169-20.168-20.169zm-432.083-377.183c0-2.851 2.319-5.17 5.17-5.17h29.421c2.851 0 5.17 2.319 5.17 5.17v32.649h-11.13c-4.142 0-7.5 3.358-7.5 7.5s3.358 7.5 7.5 7.5h11.13v38.507h-7.001c-4.142 0-7.5 3.358-7.5 7.5s3.358 7.5 7.5 7.5h7.001v38.507h-11.13c-4.142 0-7.5 3.358-7.5 7.5s3.358 7.5 7.5 7.5h11.13v38.507h-7.001c-4.142 0-7.5 3.358-7.5 7.5s3.358 7.5 7.5 7.5h7.001v38.507h-11.13c-4.142 0-7.5 3.358-7.5 7.5s3.358 7.5 7.5 7.5h11.13v38.507h-7.001c-4.142 0-7.5 3.358-7.5 7.5s3.358 7.5 7.5 7.5h7.001v60.493c0 1.491.217 2.928.589 4.303l-35.044 35.044c-3.36-5.431-5.306-11.826-5.306-18.669z"/><path d="m502.213 114.417-80.565-52.552c-3.603-2.453-7.585-4.182-11.837-5.14l-36.665-8.264c-1.545-2.212-3.49-4.154-5.776-5.693l-17.981-12.101c-1.288-.867-2.818-1.283-4.21-1.278-.688 0-90.741.002-90.572.002-1.344.003-2.856.402-4.145 1.264l-13.481 9.016c-3.098 2.071-5.608 4.904-7.317 8.169l-39.419 8.884c-4.259.959-8.247 2.692-11.853 5.15l-80.896 52.844c-9.13 5.964-12.379 17.837-7.558 27.618l25.163 51.057c5.822 11.813 20.605 15.533 31.225 8.496.171-.111 16.535-10.709 28.074-17.905v32.681c0 4.142 3.358 7.5 7.5 7.5s7.5-3.358 7.5-7.5v-34.472c0-10.961-12.068-17.681-21.388-11.901-11.683 7.248-29.661 18.891-29.906 19.05-3.313 2.194-7.79.991-9.549-2.58l-25.164-51.058c-1.471-2.985-.479-6.609 2.307-8.429l80.96-52.885c.046-.03.092-.061.138-.093 2.05-1.405 4.319-2.394 6.744-2.94l32.148-7.246-1.502 8.318c-2.17 12.022 3.593 24.001 14.341 29.809l46.054 24.882c6.553 8.685 23.913 8.682 30.471.001l47.888-25.895c9.503-5.139 15.159-15.039 14.76-25.835l-.392-10.615 29.203 6.582c2.421.545 4.687 1.533 6.736 2.936.046.031.092.063.139.093l80.63 52.595c2.773 1.809 3.774 5.419 2.327 8.397l-24.913 51.298c-1.689 3.477-6.101 4.907-9.639 2.566-.182-.117-18.28-11.804-30.011-19.026-9.312-5.735-21.349.977-21.349 11.924v192.986c0 5.035-4.096 9.132-9.132 9.132h-202.77c-5.035 0-9.132-4.097-9.132-9.132v-123.303c0-4.142-3.358-7.5-7.5-7.5s-7.5 3.358-7.5 7.5v123.302c0 13.306 10.826 24.132 24.132 24.132h202.771c13.306 0 24.132-10.826 24.132-24.132v-191.2c11.575 7.169 28.045 17.804 28.147 17.869 10.867 7.201 25.633 3.195 31.345-8.566l24.913-51.299c4.738-9.758 1.46-21.586-7.626-27.513zm-263.263-39.322c1.749-9.59 3.15-17.71 3.47-18.992.469-1.608 1.498-3.025 2.899-3.962l5.9-3.946 23.609 56.606-29.168-15.76c-5.029-2.717-7.725-8.322-6.71-13.946zm57.657 42.955-30.722-73.661h68.037l-30.886 73.655c-1.404.781-5.018.785-6.429.006zm59.199-30.019-30.932 16.726 23.713-56.549 10.407 7.004c1.852 1.247 3.078 3.4 3.162 5.685l.555 15.047c.187 5.052-2.459 9.683-6.905 12.087z"/></g></g></svg>